/* XPM */
static char *_2c3fa4ece8f421fb72a137114cda3b0NfrCCprUSVKLCGuf[] = {
/* columns rows colors chars-per-pixel */
"100 100 3 1 ",
"  c #FFE650",
". c #FFED7F",
"X c white",
/* pixels */
"                                                                                                    ",
"                                                                                                    ",
"                                                                                                    ",
"                                                                                                    ",
"                                                                                                    ",
"                                                                                                    ",
"                                                                                                    ",
"                                                                                                    ",
"                                                                                                    ",
"                                                                                                    ",
"                                                                                                    ",
"                                                                                                    ",
"                                                                                                    ",
"                                                                                                    ",
"                                                                                                    ",
"                                                                                                    ",
"                                                                                                    ",
"                                                                                                    ",
"                                                                                                    ",
"                                                                                                    ",
"                                                                                                    ",
"                                                                                                    ",
"                                     .XXXXXXXXXXXXXXXXXXXXXXXXXX                                    ",
"                                     .XXXXXXXXXXXXXXXXXXXXXXXXXX                                    ",
"                                     .XXXXXXXXXXXXXXXXXXXXXXXXXX                                    ",
"                                     .XXXXXXXXXXXXXXXXXXXXXXXXXX                                    ",
"                                     .XXXXXXXXXXXXXXXXXXXXXXXXXX                                    ",
"                                     .XXXXXX....................                                    ",
"                                     .XXXXXX                                                        ",
"                                     .XXXXXX                                                        ",
"                                     .XXXXXX                                                        ",
"                                     .XXXXXX                                                        ",
"                                     .XXXXXX                                                        ",
"                                     .XXXXXX                                                        ",
"                                     .XXXXXX                                                        ",
"                                     .XXXXXX                                                        ",
"                                     .XXXXXX                                                        ",
"                                     .XXXXXX                                                        ",
"                                     .XXXXXX                                                        ",
"                                     .XXXXXX                                                        ",
"                                     .XXXXXX                                                        ",
"                                     .XXXXXX                                                        ",
"                                     .XXXXXX                                                        ",
"                                     .XXXXXXXXXXXXXXXXXXXXXXXXX                                     ",
"                                     .XXXXXXXXXXXXXXXXXXXXXXXXX                                     ",
"                                     .XXXXXXXXXXXXXXXXXXXXXXXXX                                     ",
"                                     .XXXXXXXXXXXXXXXXXXXXXXXXX                                     ",
"                                     .XXXXXXXXXXXXXXXXXXXXXXXXX                                     ",
"                                     .XXXXXX...................                                     ",
"                                     .XXXXXX                                                        ",
"                                     .XXXXXX                                                        ",
"                                     .XXXXXX                                                        ",
"                                     .XXXXXX                                                        ",
"                                     .XXXXXX                                                        ",
"                                     .XXXXXX                                                        ",
"                                     .XXXXXX                                                        ",
"                                     .XXXXXX                                                        ",
"                                     .XXXXXX                                                        ",
"                                     .XXXXXX                                                        ",
"                                     .XXXXXX                                                        ",
"                                     .XXXXXX                                                        ",
"                                     .XXXXXX                                                        ",
"                                     .XXXXXX                                                        ",
"                                     .XXXXXX                                                        ",
"                                     .XXXXXX                                                        ",
"                                     .XXXXXX.....................                                   ",
"                                     .XXXXXXXXXXXXXXXXXXXXXXXXXXX                                   ",
"                                     .XXXXXXXXXXXXXXXXXXXXXXXXXXX                                   ",
"                                     .XXXXXXXXXXXXXXXXXXXXXXXXXXX                                   ",
"                                     .XXXXXXXXXXXXXXXXXXXXXXXXXXX                                   ",
"                                     .XXXXXXXXXXXXXXXXXXXXXXXXXXX                                   ",
"                                                                                                    ",
"                                                                                                    ",
"                                                                                                    ",
"                                                                                                    ",
"                                                                                                    ",
"                                                                                                    ",
"                                                                                                    ",
"                                                                                                    ",
"                                                                                                    ",
"                                                                                                    ",
"                                                                                                    ",
"                                                                                                    ",
"                                                                                                    ",
"                                                                                                    ",
"                                                                                                    ",
"                                                                                                    ",
"                                                                                                    ",
"                                                                                                    ",
"                                                                                                    ",
"                                                                                                    ",
"                                                                                                    ",
"                                                                                                    ",
"                                                                                                    ",
"                                                                                                    ",
"                                                                                                    ",
"                                                                                                    ",
"                                                                                                    ",
"                                                                                                    ",
"                                                                                                    "
};
