/* XPM */
static char *_5174097439f497eaa32584f4a3922d57RBeBqYE9mhdSxTe[] = {
/* columns rows colors chars-per-pixel */
"100 100 16 1 ",
"  c #0500E0",
". c #080EE1",
"X c #0C1BE2",
"o c #0F29E3",
"O c #1236E3",
"+ c #1644E4",
"@ c #1951E5",
"# c #1C5FE6",
"$ c #206CE7",
"% c #237AE8",
"& c #2687E9",
"* c #2A95EA",
"= c #2DA2EA",
"- c #30B0EB",
"; c #34BDEC",
": c #37CBED",
/* pixels */
"::::::::::::::::::::::::::::::::::::::::::::::::::::::::::::::::::::::::::::::::::::::::::::::::::::",
"::::::::::::::::::::::::::::::::::::::::::::::::::::::::::::::::::::::::::::::::::::::::::::::::::::",
"::::::::::::::::::::::::::::::::::::::::::::::::::::::::::::::::::::::::::::::::::::::::::::::::::::",
"::::::::::::::::::::::::::::::::::::::::::::::::::::::::::::::::::::::::::::::::::::::::::::::::::::",
"::::::::::::::::::::::::::::::::::::::::::::::::::::::::::::::::::::::::::::::::::::::::::::::::::::",
"::::::::::::::::::::::::::::::::::::::::::::::::::::::::::::::::::::::::::::::::::::::::::::::::::::",
"::::::::::::::::::::::::::::::::::::::::::::::::::::::::::::::::::::::::::::::::::::::::::::::::::::",
"::::::::::::::::::::::::::::::::::::::::::::::::::::::::::::::::::::::::::::::::::::::::::::::::::::",
"::::::::::::::::::::::::::::::::::::::::::::::::::::::::::::::::::::::::::::::::::::::::::::::::::::",
"::::::::::::::::::::::::::::::::::::::::::::::::::::::::::::::::::::::::::::::::::::::::::::::::::::",
"::::::::::::::::::::::::::::::::::::::::::::::::::::::::::::::::::::::::::::::::::::::::::::::::::::",
"::::::::::::::::::::::::::::::::::::::::::::::::::::::::::::::::::::::::::::::::::::::::::::::::::::",
"::::::::::::::::::::::::::::::::::::::::::::::::::::::::::::::::::::::::::::::::::::::::::::::::::::",
"::::::::::::::::::::::::::::::::::::::::::::::::::::::::::::::::::::::::::::::::::::::::::::::::::::",
"::::::::::::::::::::::::::::::::::::::::::::::::::::::::::::::::::::::::::::::::::::::::::::::::::::",
"::::::::::::::::::::::::::::::::::::::::::::::::::::::::::::::::::::::::::::::::::::::::::::::::::::",
"::::::::::::::::::::::::::::::::::::::::::::::::::::::::::::::::::::::::::::::::::::::::::::::::::::",
"::::::::::::::::::::::::::::::::::::::::::::::::::::::::::::::::::::::::::::::::::::::::::::::::::::",
"::::::::::::::::::::::::::::::::::::::::::::::::::::::::::::::::::::::::::::::::::::::::::::::::::::",
"::::::::::::::::::::::::::::::::::::::::::::::::::::::::::::::::::::::::::::::::::::::::::::::::::::",
"::::::::::::::::::::::::::::::::::::::::::::::::::::::::::::::::::::::::::::::::::::::::::::::::::::",
"::::::::::::::::::::::::::::::::::::::::::::::::::::::::::::::::::::::::::::::::::::::::::::::::::::",
":::::::::::::::::::::::::::::::       *:::::::::::::::::::::::      ::::::::::::::::::::::::::::::::",
":::::::::::::::::::::::::::::::       o:::::::::::::::::::::::      ::::::::::::::::::::::::::::::::",
":::::::::::::::::::::::::::::::        $::::::::::::::::::::::      ::::::::::::::::::::::::::::::::",
":::::::::::::::::::::::::::::::         =:::::::::::::::::::::      ::::::::::::::::::::::::::::::::",
":::::::::::::::::::::::::::::::         O:::::::::::::::::::::      ::::::::::::::::::::::::::::::::",
":::::::::::::::::::::::::::::::          $::::::::::::::::::::      ::::::::::::::::::::::::::::::::",
":::::::::::::::::::::::::::::::          .-:::::::::::::::::::      ::::::::::::::::::::::::::::::::",
":::::::::::::::::::::::::::::::     .     +:::::::::::::::::::      ::::::::::::::::::::::::::::::::",
":::::::::::::::::::::::::::::::     #.     &::::::::::::::::::      ::::::::::::::::::::::::::::::::",
":::::::::::::::::::::::::::::::     $$     .;:::::::::::::::::      ::::::::::::::::::::::::::::::::",
":::::::::::::::::::::::::::::::     $;.     #:::::::::::::::::      ::::::::::::::::::::::::::::::::",
":::::::::::::::::::::::::::::::     +:$      *::::::::::::::::      ::::::::::::::::::::::::::::::::",
":::::::::::::::::::::::::::::::     O::X     X::::::::::::::::      ::::::::::::::::::::::::::::::::",
":::::::::::::::::::::::::::::::     O::%      $:::::::::::::::      ::::::::::::::::::::::::::::::::",
":::::::::::::::::::::::::::::::     O:::o      =::::::::::::::      ::::::::::::::::::::::::::::::::",
":::::::::::::::::::::::::::::::     O:::*      o::::::::::::::      ::::::::::::::::::::::::::::::::",
":::::::::::::::::::::::::::::::     O::::+      $:::::::::::::      ::::::::::::::::::::::::::::::::",
":::::::::::::::::::::::::::::::     O::::-      .-::::::::::::      ::::::::::::::::::::::::::::::::",
":::::::::::::::::::::::::::::::     o:::::$      O::::::::::::      ::::::::::::::::::::::::::::::::",
":::::::::::::::::::::::::::::::      :::::;X      &:::::::::::      ::::::::::::::::::::::::::::::::",
":::::::::::::::::::::::::::::::      ::::::&      .;::::::::::      ::::::::::::::::::::::::::::::::",
":::::::::::::::::::::::::::::::      :::::::+      @::::::::::      ::::::::::::::::::::::::::::::::",
":::::::::::::::::::::::::::::::      :::::::-.      *:::::::::      ::::::::::::::::::::::::::::::::",
":::::::::::::::::::::::::::::::      ::::::::$      X;::::::::      ::::::::::::::::::::::::::::::::",
":::::::::::::::::::::::::::::::      :::::::::o      $::::::::      ::::::::::::::::::::::::::::::::",
":::::::::::::::::::::::::::::::      :::::::::*       =:::::::      ::::::::::::::::::::::::::::::::",
":::::::::::::::::::::::::::::::      ::::::::::#      O:::::::      ::::::::::::::::::::::::::::::::",
":::::::::::::::::::::::::::::::      ::::::::::;X      $::::::      ::::::::::::::::::::::::::::::::",
":::::::::::::::::::::::::::::::      :::::::::::&      .;:::::      ::::::::::::::::::::::::::::::::",
":::::::::::::::::::::::::::::::      ::::::::::::+      @:::::O     ::::::::::::::::::::::::::::::::",
":::::::::::::::::::::::::::::::      ::::::::::::-.      =::::O     ::::::::::::::::::::::::::::::::",
":::::::::::::::::::::::::::::::      :::::::::::::$      O::::O     ::::::::::::::::::::::::::::::::",
":::::::::::::::::::::::::::::::      ::::::::::::::O      %:::O     ::::::::::::::::::::::::::::::::",
":::::::::::::::::::::::::::::::      ::::::::::::::=      X:::O     ::::::::::::::::::::::::::::::::",
":::::::::::::::::::::::::::::::      :::::::::::::::$      $::O     ::::::::::::::::::::::::::::::::",
":::::::::::::::::::::::::::::::      :::::::::::::::;X     .;:#     ::::::::::::::::::::::::::::::::",
":::::::::::::::::::::::::::::::      ::::::::::::::::*      $:$     ::::::::::::::::::::::::::::::::",
":::::::::::::::::::::::::::::::      :::::::::::::::::+     .;$     ::::::::::::::::::::::::::::::::",
":::::::::::::::::::::::::::::::      :::::::::::::::::;.     $$     ::::::::::::::::::::::::::::::::",
":::::::::::::::::::::::::::::::      ::::::::::::::::::%     .&     ::::::::::::::::::::::::::::::::",
":::::::::::::::::::::::::::::::      :::::::::::::::::::O     O     ::::::::::::::::::::::::::::::::",
":::::::::::::::::::::::::::::::      :::::::::::::::::::-           ::::::::::::::::::::::::::::::::",
":::::::::::::::::::::::::::::::      ::::::::::::::::::::$          ::::::::::::::::::::::::::::::::",
":::::::::::::::::::::::::::::::      :::::::::::::::::::::o         ::::::::::::::::::::::::::::::::",
":::::::::::::::::::::::::::::::      :::::::::::::::::::::*         ::::::::::::::::::::::::::::::::",
":::::::::::::::::::::::::::::::      ::::::::::::::::::::::#        ::::::::::::::::::::::::::::::::",
":::::::::::::::::::::::::::::::      ::::::::::::::::::::::;.       ::::::::::::::::::::::::::::::::",
":::::::::::::::::::::::::::::::      :::::::::::::::::::::::&       ::::::::::::::::::::::::::::::::",
":::::::::::::::::::::::::::::::      ::::::::::::::::::::::::O      ::::::::::::::::::::::::::::::::",
"::::::::::::::::::::::::::::::::::::::::::::::::::::::::::::::::::::::::::::::::::::::::::::::::::::",
"::::::::::::::::::::::::::::::::::::::::::::::::::::::::::::::::::::::::::::::::::::::::::::::::::::",
"::::::::::::::::::::::::::::::::::::::::::::::::::::::::::::::::::::::::::::::::::::::::::::::::::::",
"::::::::::::::::::::::::::::::::::::::::::::::::::::::::::::::::::::::::::::::::::::::::::::::::::::",
"::::::::::::::::::::::::::::::::::::::::::::::::::::::::::::::::::::::::::::::::::::::::::::::::::::",
"::::::::::::::::::::::::::::::::::::::::::::::::::::::::::::::::::::::::::::::::::::::::::::::::::::",
"::::::::::::::::::::::::::::::::::::::::::::::::::::::::::::::::::::::::::::::::::::::::::::::::::::",
"::::::::::::::::::::::::::::::::::::::::::::::::::::::::::::::::::::::::::::::::::::::::::::::::::::",
"::::::::::::::::::::::::::::::::::::::::::::::::::::::::::::::::::::::::::::::::::::::::::::::::::::",
"::::::::::::::::::::::::::::::::::::::::::::::::::::::::::::::::::::::::::::::::::::::::::::::::::::",
"::::::::::::::::::::::::::::::::::::::::::::::::::::::::::::::::::::::::::::::::::::::::::::::::::::",
"::::::::::::::::::::::::::::::::::::::::::::::::::::::::::::::::::::::::::::::::::::::::::::::::::::",
"::::::::::::::::::::::::::::::::::::::::::::::::::::::::::::::::::::::::::::::::::::::::::::::::::::",
"::::::::::::::::::::::::::::::::::::::::::::::::::::::::::::::::::::::::::::::::::::::::::::::::::::",
"::::::::::::::::::::::::::::::::::::::::::::::::::::::::::::::::::::::::::::::::::::::::::::::::::::",
"::::::::::::::::::::::::::::::::::::::::::::::::::::::::::::::::::::::::::::::::::::::::::::::::::::",
"::::::::::::::::::::::::::::::::::::::::::::::::::::::::::::::::::::::::::::::::::::::::::::::::::::",
"::::::::::::::::::::::::::::::::::::::::::::::::::::::::::::::::::::::::::::::::::::::::::::::::::::",
"::::::::::::::::::::::::::::::::::::::::::::::::::::::::::::::::::::::::::::::::::::::::::::::::::::",
"::::::::::::::::::::::::::::::::::::::::::::::::::::::::::::::::::::::::::::::::::::::::::::::::::::",
"::::::::::::::::::::::::::::::::::::::::::::::::::::::::::::::::::::::::::::::::::::::::::::::::::::",
"::::::::::::::::::::::::::::::::::::::::::::::::::::::::::::::::::::::::::::::::::::::::::::::::::::",
"::::::::::::::::::::::::::::::::::::::::::::::::::::::::::::::::::::::::::::::::::::::::::::::::::::",
"::::::::::::::::::::::::::::::::::::::::::::::::::::::::::::::::::::::::::::::::::::::::::::::::::::",
"::::::::::::::::::::::::::::::::::::::::::::::::::::::::::::::::::::::::::::::::::::::::::::::::::::",
"::::::::::::::::::::::::::::::::::::::::::::::::::::::::::::::::::::::::::::::::::::::::::::::::::::",
"::::::::::::::::::::::::::::::::::::::::::::::::::::::::::::::::::::::::::::::::::::::::::::::::::::",
"::::::::::::::::::::::::::::::::::::::::::::::::::::::::::::::::::::::::::::::::::::::::::::::::::::",
"::::::::::::::::::::::::::::::::::::::::::::::::::::::::::::::::::::::::::::::::::::::::::::::::::::"
};
