/* XPM */
static char *ad25fa9f9e3c4f54e6337e358aa9c414xIJLslo57lpDoAzc[] = {
/* columns rows colors chars-per-pixel */
"100 100 16 1 ",
"  c #32326D",
". c #2F3575",
"X c #2B377C",
"o c #283A84",
"O c #253D8C",
"+ c #1E429B",
"@ c #214093",
"# c #1B45A3",
"$ c #1748AA",
"% c #144BB2",
"& c #114DBA",
"* c #0D50C1",
"= c #0A53C9",
"- c #0756D1",
"; c #0358D8",
": c #005BE0",
/* pixels */
"                                                                                                    ",
"                                                                                                    ",
"                                                                                                    ",
"                                                                                                    ",
"                                                                                                    ",
"                                                                                                    ",
"                                                                                                    ",
"                                                                                                    ",
"                                                                                                    ",
"                                                                                                    ",
"                                                                                                    ",
"                                                                                                    ",
"                                                                                                    ",
"                                                                                                    ",
"                                                                                                    ",
"                                                                                                    ",
"                                                                                                    ",
"                                                                                                    ",
"                                                                                                    ",
"                                                                                                    ",
"                                                                                                    ",
"                                                                                                    ",
"                    =:::::=                   #::::::+                  X::::::@                    ",
"                    $::::::                   &::::::%                  +::::::.                    ",
"                    @::::::O                  ;::::::=                  %:::::*                     ",
"                    .::::::#                 O::::::::.                 -:::::#                     ",
"                     =:::::*                 #::::::::@                X::::::o                     ",
"                     $:::::;                 *::::::::$                +:::::;                      ",
"                     @::::::o                :::::::::=                %:::::%                      ",
"                     .::::::#               @::::-:::::                ;:::::+                      ",
"                      =:::::%               $::::#:::::O              o::::::.                      ",
"                      $:::::-               =::::O;::::#              #:::::=                       ",
"                      @::::::X             .:::::.*::::*              &:::::#                       ",
"                      .::::::+             @::::- $:::::              ;:::::o                       ",
"                       =:::::$             %::::% #:::::O            o:::::;                        ",
"                       $:::::=             -::::# O:::::#            #:::::&                        ",
"                       @::::::.           X:::::o  :::::&            *:::::+                        ",
"                       .::::::O           +:::::   =::::;            ::::::X                        ",
"                        =:::::#           %::::*   %:::::o          O:::::=                         ",
"                        $:::::*           ;::::#   #:::::#          #:::::$                         ",
"                        @::::::          o:::::O   o:::::%          =:::::O                         ",
"                        .::::::o         #::::;     :::::-         .:::::;                          ",
"                         =:::::#         &::::&     *:::::X        @:::::&                          ",
"                         $:::::&         ;::::#     #:::::+        $:::::#                          ",
"                         @:::::;        o:::::X     O:::::%        =:::::X                          ",
"                         .::::::X       #::::-       :::::=       .:::::-                           ",
"                          =:::::+       *::::%       *:::::.      @:::::$                           ",
"                          $:::::%       :::::@       $:::::@      $:::::@                           ",
"                          @:::::=      O:::::.       @:::::#      =:::::                            ",
"                          .::::::.     #::::=        .:::::*     .:::::&                            ",
"                           *:::::@     =::::#         =:::::     @:::::#                            ",
"                           #:::::#    .:::::O         $:::::O    $:::::X                            ",
"                           O:::::*    @:::::          @:::::#    =::::-                             ",
"                            ::::::    $::::&          X:::::&   .:::::%                             ",
"                            *:::::o   =::::#           -::::-   O:::::@                             ",
"                            #:::::+  .:::::o           %:::::.  #:::::.                             ",
"                            O:::::%  O::::-            +:::::O  *::::*                              ",
"                             :::::=  #::::%            X:::::#  :::::#                              ",
"                             *:::::  *::::+             -::::& o:::::o                              ",
"                             #:::::O :::::.             &::::- #::::-                               ",
"                             O:::::#o::::=              #::::: %::::%                               ",
"                              :::::%+::::$              o:::::O=::::+                               ",
"                              *::::=#::::O               ;::::+:::::.                               ",
"                              #:::::=::::                &::::=::::=                                ",
"                              O:::::::::&                #:::::::::#                                ",
"                               :::::::::#                O:::::::::o                                ",
"                               *::::::::o                 ::::::::;                                 ",
"                               #:::::::-                  *:::::::%                                 ",
"                               O:::::::%                  #:::::::+                                 ",
"                                :::::::+                  O:::::::X                                 ",
"                                *::::::.                   ::::::=                                  ",
"                                                                                                    ",
"                                                                                                    ",
"                                                                                                    ",
"                                                                                                    ",
"                                                                                                    ",
"                                                                                                    ",
"                                                                                                    ",
"                                                                                                    ",
"                                                                                                    ",
"                                                                                                    ",
"                                                                                                    ",
"                                                                                                    ",
"                                                                                                    ",
"                                                                                                    ",
"                                                                                                    ",
"                                                                                                    ",
"                                                                                                    ",
"                                                                                                    ",
"                                                                                                    ",
"                                                                                                    ",
"                                                                                                    ",
"                                                                                                    ",
"                                                                                                    ",
"                                                                                                    ",
"                                                                                                    ",
"                                                                                                    ",
"                                                                                                    ",
"                                                                                                    ",
"                                                                                                    "
};
